<mxfile host="app.diagrams.net" agent="Mozilla/5.0 (Windows NT 10.0; Win64; x64) AppleWebKit/537.36 (KHTML, like Gecko) Chrome/132.0.0.0 Safari/537.36 OPR/117.0.0.0" version="26.2.10">
  <diagram id="prtHgNgQTEPvFCAcTncT" name="Page-1">
    <mxGraphModel grid="1" page="1" gridSize="6" guides="1" tooltips="1" connect="1" arrows="1" fold="1" pageScale="1" pageWidth="1654" pageHeight="2336" math="0" shadow="0">
      <root>
        <mxCell id="0" />
        <mxCell id="1" parent="0" />
        <mxCell id="XFZLn8mU4N4aDGrCl8SK-13" style="edgeStyle=orthogonalEdgeStyle;rounded=0;orthogonalLoop=1;jettySize=auto;html=1;exitX=1;exitY=0.5;exitDx=0;exitDy=0;entryX=0;entryY=0.5;entryDx=0;entryDy=0;" edge="1" parent="1" source="XFZLn8mU4N4aDGrCl8SK-1" target="XFZLn8mU4N4aDGrCl8SK-10">
          <mxGeometry relative="1" as="geometry">
            <Array as="points">
              <mxPoint x="909" y="210" />
            </Array>
          </mxGeometry>
        </mxCell>
        <mxCell id="z6CFvc5Y_7R4wMBD-aB0-1" style="edgeStyle=orthogonalEdgeStyle;rounded=0;orthogonalLoop=1;jettySize=auto;html=1;exitX=1;exitY=0;exitDx=0;exitDy=0;" edge="1" parent="1" source="XFZLn8mU4N4aDGrCl8SK-1" target="XFZLn8mU4N4aDGrCl8SK-52">
          <mxGeometry relative="1" as="geometry" />
        </mxCell>
        <mxCell id="9U6cavfSy_mjkK7DyCbC-13" style="edgeStyle=orthogonalEdgeStyle;rounded=0;orthogonalLoop=1;jettySize=auto;html=1;exitX=0.5;exitY=1;exitDx=0;exitDy=0;entryX=1;entryY=0.5;entryDx=0;entryDy=0;" edge="1" parent="1" source="XFZLn8mU4N4aDGrCl8SK-1" target="9U6cavfSy_mjkK7DyCbC-2">
          <mxGeometry relative="1" as="geometry" />
        </mxCell>
        <mxCell id="XFZLn8mU4N4aDGrCl8SK-1" value="Registro" style="rounded=0;whiteSpace=wrap;html=1;" vertex="1" parent="1">
          <mxGeometry x="777" y="160" width="132" height="78" as="geometry" />
        </mxCell>
        <mxCell id="XFZLn8mU4N4aDGrCl8SK-2" value="tipo_Documento" style="ellipse;whiteSpace=wrap;html=1;" vertex="1" parent="1">
          <mxGeometry x="579" y="170" width="114" height="30" as="geometry" />
        </mxCell>
        <mxCell id="XFZLn8mU4N4aDGrCl8SK-3" value="nombre" style="ellipse;whiteSpace=wrap;html=1;" vertex="1" parent="1">
          <mxGeometry x="603" y="228" width="114" height="30" as="geometry" />
        </mxCell>
        <mxCell id="XFZLn8mU4N4aDGrCl8SK-4" value="apellido" style="ellipse;whiteSpace=wrap;html=1;" vertex="1" parent="1">
          <mxGeometry x="679.5" y="266" width="114" height="54" as="geometry" />
        </mxCell>
        <mxCell id="XFZLn8mU4N4aDGrCl8SK-5" value="" style="endArrow=none;html=1;rounded=0;exitX=0.921;exitY=0.204;exitDx=0;exitDy=0;exitPerimeter=0;" edge="1" parent="1" source="XFZLn8mU4N4aDGrCl8SK-4" target="XFZLn8mU4N4aDGrCl8SK-1">
          <mxGeometry width="50" height="50" relative="1" as="geometry">
            <mxPoint x="747" y="362" as="sourcePoint" />
            <mxPoint x="797" y="312" as="targetPoint" />
          </mxGeometry>
        </mxCell>
        <mxCell id="XFZLn8mU4N4aDGrCl8SK-6" value="" style="endArrow=none;html=1;rounded=0;entryX=0;entryY=0.5;entryDx=0;entryDy=0;" edge="1" parent="1" source="XFZLn8mU4N4aDGrCl8SK-3" target="XFZLn8mU4N4aDGrCl8SK-1">
          <mxGeometry width="50" height="50" relative="1" as="geometry">
            <mxPoint x="765" y="326" as="sourcePoint" />
            <mxPoint x="815" y="276" as="targetPoint" />
          </mxGeometry>
        </mxCell>
        <mxCell id="XFZLn8mU4N4aDGrCl8SK-8" value="" style="endArrow=none;dashed=1;html=1;rounded=0;" edge="1" parent="1" source="XFZLn8mU4N4aDGrCl8SK-33" target="XFZLn8mU4N4aDGrCl8SK-1">
          <mxGeometry width="50" height="50" relative="1" as="geometry">
            <mxPoint x="747" y="374" as="sourcePoint" />
            <mxPoint x="797" y="324" as="targetPoint" />
          </mxGeometry>
        </mxCell>
        <mxCell id="XFZLn8mU4N4aDGrCl8SK-14" style="edgeStyle=orthogonalEdgeStyle;rounded=0;orthogonalLoop=1;jettySize=auto;html=1;exitX=1;exitY=0.5;exitDx=0;exitDy=0;entryX=0;entryY=0.5;entryDx=0;entryDy=0;" edge="1" parent="1" source="XFZLn8mU4N4aDGrCl8SK-10" target="XFZLn8mU4N4aDGrCl8SK-23">
          <mxGeometry relative="1" as="geometry">
            <mxPoint x="846" y="156" as="targetPoint" />
          </mxGeometry>
        </mxCell>
        <mxCell id="XFZLn8mU4N4aDGrCl8SK-10" value="vive&amp;nbsp;&amp;nbsp;" style="rhombus;whiteSpace=wrap;html=1;" vertex="1" parent="1">
          <mxGeometry x="963" y="170" width="138" height="80" as="geometry" />
        </mxCell>
        <mxCell id="XFZLn8mU4N4aDGrCl8SK-49" style="edgeStyle=orthogonalEdgeStyle;rounded=0;orthogonalLoop=1;jettySize=auto;html=1;exitX=0.25;exitY=1;exitDx=0;exitDy=0;" edge="1" parent="1" source="XFZLn8mU4N4aDGrCl8SK-23" target="XFZLn8mU4N4aDGrCl8SK-93">
          <mxGeometry relative="1" as="geometry">
            <mxPoint x="1508.8749999999995" y="306.0347794117646" as="targetPoint" />
          </mxGeometry>
        </mxCell>
        <mxCell id="XFZLn8mU4N4aDGrCl8SK-15" value="id_Torre" style="ellipse;whiteSpace=wrap;html=1;" vertex="1" parent="1">
          <mxGeometry x="1309.5" y="60" width="72" height="42" as="geometry" />
        </mxCell>
        <mxCell id="XFZLn8mU4N4aDGrCl8SK-21" value="id_Piso" style="ellipse;whiteSpace=wrap;html=1;" vertex="1" parent="1">
          <mxGeometry x="1486" y="54" width="72" height="42" as="geometry" />
        </mxCell>
        <mxCell id="wD9vCSs2kiwaSjGG6T85-2" style="edgeStyle=orthogonalEdgeStyle;rounded=0;orthogonalLoop=1;jettySize=auto;html=1;exitX=1;exitY=0.5;exitDx=0;exitDy=0;entryX=0;entryY=0.5;entryDx=0;entryDy=0;" edge="1" parent="1" source="XFZLn8mU4N4aDGrCl8SK-23" target="wD9vCSs2kiwaSjGG6T85-1">
          <mxGeometry relative="1" as="geometry">
            <Array as="points">
              <mxPoint x="1656" y="196" />
              <mxPoint x="1656" y="166" />
            </Array>
          </mxGeometry>
        </mxCell>
        <mxCell id="XFZLn8mU4N4aDGrCl8SK-23" value="apartamento" style="rounded=0;whiteSpace=wrap;html=1;" vertex="1" parent="1">
          <mxGeometry x="1378.5" y="166" width="120" height="60" as="geometry" />
        </mxCell>
        <mxCell id="XFZLn8mU4N4aDGrCl8SK-27" value="id_apartamento" style="ellipse;whiteSpace=wrap;html=1;" vertex="1" parent="1">
          <mxGeometry x="1381.5" y="18" width="105" height="42" as="geometry" />
        </mxCell>
        <mxCell id="XFZLn8mU4N4aDGrCl8SK-28" value="" style="endArrow=none;dashed=1;html=1;rounded=0;exitX=0.442;exitY=-0.017;exitDx=0;exitDy=0;exitPerimeter=0;entryX=0.389;entryY=0.976;entryDx=0;entryDy=0;entryPerimeter=0;" edge="1" parent="1" source="XFZLn8mU4N4aDGrCl8SK-23" target="XFZLn8mU4N4aDGrCl8SK-27">
          <mxGeometry width="50" height="50" relative="1" as="geometry">
            <mxPoint x="1548" y="158" as="sourcePoint" />
            <mxPoint x="1598" y="108" as="targetPoint" />
          </mxGeometry>
        </mxCell>
        <mxCell id="XFZLn8mU4N4aDGrCl8SK-29" value="pagos" style="rounded=0;whiteSpace=wrap;html=1;" vertex="1" parent="1">
          <mxGeometry x="1099.5" y="315" width="63" height="42" as="geometry" />
        </mxCell>
        <mxCell id="XFZLn8mU4N4aDGrCl8SK-33" value="id" style="ellipse;whiteSpace=wrap;html=1;" vertex="1" parent="1">
          <mxGeometry x="777" y="109.5" width="114" height="27" as="geometry" />
        </mxCell>
        <mxCell id="XFZLn8mU4N4aDGrCl8SK-34" value="" style="endArrow=none;html=1;rounded=0;exitX=1;exitY=0.5;exitDx=0;exitDy=0;" edge="1" parent="1" source="XFZLn8mU4N4aDGrCl8SK-2" target="XFZLn8mU4N4aDGrCl8SK-1">
          <mxGeometry width="50" height="50" relative="1" as="geometry">
            <mxPoint x="747" y="188" as="sourcePoint" />
            <mxPoint x="797" y="138" as="targetPoint" />
          </mxGeometry>
        </mxCell>
        <mxCell id="XFZLn8mU4N4aDGrCl8SK-36" value="fecha" style="ellipse;whiteSpace=wrap;html=1;" vertex="1" parent="1">
          <mxGeometry x="1020" y="321" width="51" height="30" as="geometry" />
        </mxCell>
        <mxCell id="XFZLn8mU4N4aDGrCl8SK-37" value="valor_pago" style="ellipse;whiteSpace=wrap;html=1;" vertex="1" parent="1">
          <mxGeometry x="1095" y="376" width="75" height="30" as="geometry" />
        </mxCell>
        <mxCell id="XFZLn8mU4N4aDGrCl8SK-38" value="id_pagos" style="ellipse;whiteSpace=wrap;html=1;" vertex="1" parent="1">
          <mxGeometry x="1093.5" y="270" width="75" height="30" as="geometry" />
        </mxCell>
        <mxCell id="XFZLn8mU4N4aDGrCl8SK-41" value="" style="endArrow=none;dashed=1;html=1;rounded=0;exitX=0.5;exitY=1;exitDx=0;exitDy=0;entryX=0.5;entryY=0;entryDx=0;entryDy=0;" edge="1" parent="1" source="XFZLn8mU4N4aDGrCl8SK-38" target="XFZLn8mU4N4aDGrCl8SK-29">
          <mxGeometry width="50" height="50" relative="1" as="geometry">
            <mxPoint x="1185" y="348" as="sourcePoint" />
            <mxPoint x="1235" y="298" as="targetPoint" />
          </mxGeometry>
        </mxCell>
        <mxCell id="XFZLn8mU4N4aDGrCl8SK-42" value="" style="endArrow=none;html=1;rounded=0;entryX=0.5;entryY=1;entryDx=0;entryDy=0;" edge="1" parent="1" source="XFZLn8mU4N4aDGrCl8SK-37" target="XFZLn8mU4N4aDGrCl8SK-29">
          <mxGeometry width="50" height="50" relative="1" as="geometry">
            <mxPoint x="1191" y="534" as="sourcePoint" />
            <mxPoint x="1241" y="484" as="targetPoint" />
          </mxGeometry>
        </mxCell>
        <mxCell id="XFZLn8mU4N4aDGrCl8SK-43" value="" style="endArrow=none;html=1;rounded=0;exitX=1;exitY=0.5;exitDx=0;exitDy=0;entryX=0;entryY=0.5;entryDx=0;entryDy=0;" edge="1" parent="1" source="XFZLn8mU4N4aDGrCl8SK-36" target="XFZLn8mU4N4aDGrCl8SK-29">
          <mxGeometry width="50" height="50" relative="1" as="geometry">
            <mxPoint x="1251" y="534" as="sourcePoint" />
            <mxPoint x="1301" y="484" as="targetPoint" />
          </mxGeometry>
        </mxCell>
        <mxCell id="XFZLn8mU4N4aDGrCl8SK-50" value="Parqueadero" style="rounded=0;whiteSpace=wrap;html=1;" vertex="1" parent="1">
          <mxGeometry x="2068" y="336" width="120" height="60" as="geometry" />
        </mxCell>
        <mxCell id="z6CFvc5Y_7R4wMBD-aB0-2" style="edgeStyle=orthogonalEdgeStyle;rounded=0;orthogonalLoop=1;jettySize=auto;html=1;exitX=0.5;exitY=0;exitDx=0;exitDy=0;" edge="1" parent="1" source="XFZLn8mU4N4aDGrCl8SK-52" target="XFZLn8mU4N4aDGrCl8SK-55">
          <mxGeometry relative="1" as="geometry" />
        </mxCell>
        <mxCell id="XFZLn8mU4N4aDGrCl8SK-52" value="publica&amp;nbsp;" style="rhombus;whiteSpace=wrap;html=1;" vertex="1" parent="1">
          <mxGeometry x="960" y="-108" width="122" height="80" as="geometry" />
        </mxCell>
        <mxCell id="XFZLn8mU4N4aDGrCl8SK-55" value="anuncio" style="rounded=0;whiteSpace=wrap;html=1;" vertex="1" parent="1">
          <mxGeometry x="963" y="-258" width="120" height="60" as="geometry" />
        </mxCell>
        <mxCell id="XFZLn8mU4N4aDGrCl8SK-57" value="id_Parqueaderos" style="ellipse;whiteSpace=wrap;html=1;" vertex="1" parent="1">
          <mxGeometry x="2074" y="250" width="108" height="42" as="geometry" />
        </mxCell>
        <mxCell id="XFZLn8mU4N4aDGrCl8SK-58" value="placa_vehiculo" style="ellipse;whiteSpace=wrap;html=1;" vertex="1" parent="1">
          <mxGeometry x="2238" y="348" width="108" height="36" as="geometry" />
        </mxCell>
        <mxCell id="XFZLn8mU4N4aDGrCl8SK-59" value="numero_parqueadero" style="ellipse;whiteSpace=wrap;html=1;" vertex="1" parent="1">
          <mxGeometry x="2065" y="444" width="126" height="36" as="geometry" />
        </mxCell>
        <mxCell id="XFZLn8mU4N4aDGrCl8SK-60" value="" style="endArrow=none;dashed=1;html=1;rounded=0;" edge="1" parent="1" source="XFZLn8mU4N4aDGrCl8SK-50" target="XFZLn8mU4N4aDGrCl8SK-57">
          <mxGeometry width="50" height="50" relative="1" as="geometry">
            <mxPoint x="1718.9299999999998" y="471.5" as="sourcePoint" />
            <mxPoint x="1946.9299999999998" y="295.5" as="targetPoint" />
          </mxGeometry>
        </mxCell>
        <mxCell id="XFZLn8mU4N4aDGrCl8SK-61" value="" style="endArrow=none;html=1;rounded=0;entryX=0;entryY=0.5;entryDx=0;entryDy=0;exitX=1;exitY=0.5;exitDx=0;exitDy=0;" edge="1" parent="1" source="XFZLn8mU4N4aDGrCl8SK-50" target="XFZLn8mU4N4aDGrCl8SK-58">
          <mxGeometry width="50" height="50" relative="1" as="geometry">
            <mxPoint x="1898.9299999999998" y="471.5" as="sourcePoint" />
            <mxPoint x="1948.9299999999998" y="421.5" as="targetPoint" />
          </mxGeometry>
        </mxCell>
        <mxCell id="XFZLn8mU4N4aDGrCl8SK-62" value="" style="endArrow=none;html=1;rounded=0;exitX=0.5;exitY=1;exitDx=0;exitDy=0;" edge="1" parent="1" source="XFZLn8mU4N4aDGrCl8SK-50" target="XFZLn8mU4N4aDGrCl8SK-59">
          <mxGeometry width="50" height="50" relative="1" as="geometry">
            <mxPoint x="2000.9299999999998" y="489.5" as="sourcePoint" />
            <mxPoint x="2050.93" y="439.5" as="targetPoint" />
          </mxGeometry>
        </mxCell>
        <mxCell id="XFZLn8mU4N4aDGrCl8SK-63" value="tipo_vehiculo" style="ellipse;whiteSpace=wrap;html=1;" vertex="1" parent="1">
          <mxGeometry x="1802.5" y="272" width="126" height="36" as="geometry" />
        </mxCell>
        <mxCell id="XFZLn8mU4N4aDGrCl8SK-64" value="" style="endArrow=none;html=1;rounded=0;" edge="1" parent="1" source="XFZLn8mU4N4aDGrCl8SK-63" target="uXZgkRd6HaHkhvPWlQsV-46">
          <mxGeometry width="50" height="50" relative="1" as="geometry">
            <mxPoint x="1826.9299999999998" y="525.5" as="sourcePoint" />
            <mxPoint x="1876.9299999999998" y="475.5" as="targetPoint" />
          </mxGeometry>
        </mxCell>
        <mxCell id="XFZLn8mU4N4aDGrCl8SK-66" value="id_anuncios" style="ellipse;whiteSpace=wrap;html=1;" vertex="1" parent="1">
          <mxGeometry x="987" y="-338" width="75" height="30" as="geometry" />
        </mxCell>
        <mxCell id="XFZLn8mU4N4aDGrCl8SK-67" value="nombre" style="ellipse;whiteSpace=wrap;html=1;" vertex="1" parent="1">
          <mxGeometry x="876" y="-308" width="75" height="30" as="geometry" />
        </mxCell>
        <mxCell id="XFZLn8mU4N4aDGrCl8SK-69" value="hora publicacion" style="ellipse;whiteSpace=wrap;html=1;" vertex="1" parent="1">
          <mxGeometry x="822" y="-240" width="129" height="30" as="geometry" />
        </mxCell>
        <mxCell id="XFZLn8mU4N4aDGrCl8SK-71" value="" style="endArrow=none;dashed=1;html=1;rounded=0;exitX=0.5;exitY=1;exitDx=0;exitDy=0;entryX=0.5;entryY=0;entryDx=0;entryDy=0;" edge="1" parent="1" source="XFZLn8mU4N4aDGrCl8SK-66" target="XFZLn8mU4N4aDGrCl8SK-55">
          <mxGeometry width="50" height="50" relative="1" as="geometry">
            <mxPoint x="1167" y="-268" as="sourcePoint" />
            <mxPoint x="1217" y="-318" as="targetPoint" />
          </mxGeometry>
        </mxCell>
        <mxCell id="XFZLn8mU4N4aDGrCl8SK-73" value="" style="endArrow=none;html=1;rounded=0;exitX=1;exitY=0;exitDx=0;exitDy=0;" edge="1" parent="1" source="XFZLn8mU4N4aDGrCl8SK-69" target="XFZLn8mU4N4aDGrCl8SK-55">
          <mxGeometry width="50" height="50" relative="1" as="geometry">
            <mxPoint x="987" y="-76" as="sourcePoint" />
            <mxPoint x="1037" y="-126" as="targetPoint" />
          </mxGeometry>
        </mxCell>
        <mxCell id="XFZLn8mU4N4aDGrCl8SK-74" value="" style="endArrow=none;html=1;rounded=0;exitX=1;exitY=1;exitDx=0;exitDy=0;entryX=0.25;entryY=0;entryDx=0;entryDy=0;" edge="1" parent="1" source="XFZLn8mU4N4aDGrCl8SK-67" target="XFZLn8mU4N4aDGrCl8SK-55">
          <mxGeometry width="50" height="50" relative="1" as="geometry">
            <mxPoint x="1089" y="-244" as="sourcePoint" />
            <mxPoint x="1139" y="-294" as="targetPoint" />
          </mxGeometry>
        </mxCell>
        <mxCell id="XFZLn8mU4N4aDGrCl8SK-77" value="&amp;nbsp;citas" style="rounded=0;whiteSpace=wrap;html=1;" vertex="1" parent="1">
          <mxGeometry x="1071.09" y="493" width="120" height="60" as="geometry" />
        </mxCell>
        <mxCell id="XFZLn8mU4N4aDGrCl8SK-81" style="edgeStyle=orthogonalEdgeStyle;rounded=0;orthogonalLoop=1;jettySize=auto;html=1;exitX=0;exitY=0.5;exitDx=0;exitDy=0;" edge="1" parent="1" source="uXZgkRd6HaHkhvPWlQsV-47" target="XFZLn8mU4N4aDGrCl8SK-77">
          <mxGeometry relative="1" as="geometry">
            <mxPoint x="1314" y="444" as="sourcePoint" />
            <Array as="points">
              <mxPoint x="1374" y="462" />
              <mxPoint x="1242" y="462" />
              <mxPoint x="1242" y="522" />
            </Array>
          </mxGeometry>
        </mxCell>
        <mxCell id="XFZLn8mU4N4aDGrCl8SK-82" value="id_citas" style="ellipse;whiteSpace=wrap;html=1;" vertex="1" parent="1">
          <mxGeometry x="1053.09" y="425" width="108" height="42" as="geometry" />
        </mxCell>
        <mxCell id="XFZLn8mU4N4aDGrCl8SK-83" value="&lt;span style=&quot;font-family: Arial; font-size: 13px; text-align: left; white-space-collapse: preserve; background-color: rgb(255, 255, 255);&quot;&gt;tipo_cita&lt;/span&gt;" style="ellipse;whiteSpace=wrap;html=1;" vertex="1" parent="1">
          <mxGeometry x="1029.09" y="595" width="108" height="24" as="geometry" />
        </mxCell>
        <mxCell id="XFZLn8mU4N4aDGrCl8SK-85" value="fecha" style="ellipse;whiteSpace=wrap;html=1;" vertex="1" parent="1">
          <mxGeometry x="1170.09" y="589" width="51" height="30" as="geometry" />
        </mxCell>
        <mxCell id="XFZLn8mU4N4aDGrCl8SK-88" value="" style="endArrow=none;html=1;rounded=0;exitX=0.308;exitY=0.967;exitDx=0;exitDy=0;entryX=0.5;entryY=0;entryDx=0;entryDy=0;exitPerimeter=0;" edge="1" parent="1" source="XFZLn8mU4N4aDGrCl8SK-77" target="XFZLn8mU4N4aDGrCl8SK-83">
          <mxGeometry width="50" height="50" relative="1" as="geometry">
            <mxPoint x="1131.09" y="531" as="sourcePoint" />
            <mxPoint x="1181.09" y="481" as="targetPoint" />
          </mxGeometry>
        </mxCell>
        <mxCell id="XFZLn8mU4N4aDGrCl8SK-90" value="" style="endArrow=none;html=1;rounded=0;exitX=0.808;exitY=1;exitDx=0;exitDy=0;entryX=0;entryY=0;entryDx=0;entryDy=0;exitPerimeter=0;" edge="1" parent="1" source="XFZLn8mU4N4aDGrCl8SK-77" target="XFZLn8mU4N4aDGrCl8SK-85">
          <mxGeometry width="50" height="50" relative="1" as="geometry">
            <mxPoint x="1149.09" y="645" as="sourcePoint" />
            <mxPoint x="1199.09" y="595" as="targetPoint" />
          </mxGeometry>
        </mxCell>
        <mxCell id="XFZLn8mU4N4aDGrCl8SK-92" value="" style="endArrow=none;dashed=1;html=1;rounded=0;exitX=0.5;exitY=0;exitDx=0;exitDy=0;" edge="1" parent="1" source="XFZLn8mU4N4aDGrCl8SK-77" target="XFZLn8mU4N4aDGrCl8SK-82">
          <mxGeometry width="50" height="50" relative="1" as="geometry">
            <mxPoint x="1059.09" y="459" as="sourcePoint" />
            <mxPoint x="1109.09" y="409" as="targetPoint" />
          </mxGeometry>
        </mxCell>
        <mxCell id="XFZLn8mU4N4aDGrCl8SK-93" value="realiza" style="rhombus;whiteSpace=wrap;html=1;" vertex="1" parent="1">
          <mxGeometry x="1269.9999999999998" y="296" width="80" height="80" as="geometry" />
        </mxCell>
        <mxCell id="XFZLn8mU4N4aDGrCl8SK-95" value="&amp;nbsp;zonas comunes" style="rounded=0;whiteSpace=wrap;html=1;" vertex="1" parent="1">
          <mxGeometry x="1457.9999999999998" y="702" width="120" height="60" as="geometry" />
        </mxCell>
        <mxCell id="XFZLn8mU4N4aDGrCl8SK-103" value="id_zona_comunes" style="ellipse;whiteSpace=wrap;html=1;" vertex="1" parent="1">
          <mxGeometry x="1295.9999999999998" y="711" width="108" height="42" as="geometry" />
        </mxCell>
        <mxCell id="XFZLn8mU4N4aDGrCl8SK-104" value="&lt;font style=&quot;font-size: 14px;&quot;&gt;tipo_zona_comunes&lt;/font&gt;" style="ellipse;whiteSpace=wrap;html=1;" vertex="1" parent="1">
          <mxGeometry x="1662" y="501" width="150" height="30" as="geometry" />
        </mxCell>
        <mxCell id="XFZLn8mU4N4aDGrCl8SK-105" value="" style="endArrow=none;dashed=1;html=1;rounded=0;exitX=0;exitY=0.5;exitDx=0;exitDy=0;" edge="1" parent="1" source="XFZLn8mU4N4aDGrCl8SK-95" target="XFZLn8mU4N4aDGrCl8SK-103">
          <mxGeometry width="50" height="50" relative="1" as="geometry">
            <mxPoint x="1742.9299999999998" y="806" as="sourcePoint" />
            <mxPoint x="1792.9299999999998" y="756" as="targetPoint" />
          </mxGeometry>
        </mxCell>
        <mxCell id="XFZLn8mU4N4aDGrCl8SK-107" value="fecha" style="ellipse;whiteSpace=wrap;html=1;" vertex="1" parent="1">
          <mxGeometry x="1772.9999999999998" y="537" width="51" height="30" as="geometry" />
        </mxCell>
        <mxCell id="XFZLn8mU4N4aDGrCl8SK-108" value="hora" style="ellipse;whiteSpace=wrap;html=1;" vertex="1" parent="1">
          <mxGeometry x="1745.9999999999998" y="585" width="51" height="30" as="geometry" />
        </mxCell>
        <mxCell id="XFZLn8mU4N4aDGrCl8SK-109" value="&lt;font style=&quot;font-size: 12px;&quot;&gt;id_agendar_zona_comunes&lt;/font&gt;" style="ellipse;whiteSpace=wrap;html=1;fontSize=10;" vertex="1" parent="1">
          <mxGeometry x="1536" y="462" width="168" height="24" as="geometry" />
        </mxCell>
        <mxCell id="XFZLn8mU4N4aDGrCl8SK-112" value="Tipo_de_categoria_Zonacomun" style="ellipse;whiteSpace=wrap;html=1;" vertex="1" parent="1">
          <mxGeometry x="1596" y="642" width="192" height="26" as="geometry" />
        </mxCell>
        <mxCell id="XFZLn8mU4N4aDGrCl8SK-120" value="N" style="text;html=1;align=center;verticalAlign=middle;whiteSpace=wrap;rounded=0;" vertex="1" parent="1">
          <mxGeometry x="927" y="174" width="60" height="30" as="geometry" />
        </mxCell>
        <mxCell id="XFZLn8mU4N4aDGrCl8SK-122" value="1" style="text;html=1;align=center;verticalAlign=middle;whiteSpace=wrap;rounded=0;" vertex="1" parent="1">
          <mxGeometry x="1071" y="180" width="60" height="30" as="geometry" />
        </mxCell>
        <mxCell id="UNmhmMYlqOH1gAnvqfug-22" style="edgeStyle=orthogonalEdgeStyle;rounded=0;orthogonalLoop=1;jettySize=auto;html=1;exitX=1;exitY=1;exitDx=0;exitDy=0;entryX=1;entryY=0.5;entryDx=0;entryDy=0;" edge="1" parent="1">
          <mxGeometry relative="1" as="geometry">
            <mxPoint x="1270" y="337" as="sourcePoint" />
            <mxPoint x="1162.5" y="337" as="targetPoint" />
          </mxGeometry>
        </mxCell>
        <mxCell id="XFZLn8mU4N4aDGrCl8SK-127" value="1" style="text;html=1;align=center;verticalAlign=middle;whiteSpace=wrap;rounded=0;" vertex="1" parent="1">
          <mxGeometry x="1210" y="306" width="60" height="30" as="geometry" />
        </mxCell>
        <mxCell id="XFZLn8mU4N4aDGrCl8SK-128" value="N" style="text;html=1;align=center;verticalAlign=middle;whiteSpace=wrap;rounded=0;" vertex="1" parent="1">
          <mxGeometry x="1332" y="250" width="60" height="30" as="geometry" />
        </mxCell>
        <mxCell id="XFZLn8mU4N4aDGrCl8SK-138" value="N" style="text;html=1;align=center;verticalAlign=middle;whiteSpace=wrap;rounded=0;" vertex="1" parent="1">
          <mxGeometry x="1029.09" y="-174" width="60" height="30" as="geometry" />
        </mxCell>
        <mxCell id="XFZLn8mU4N4aDGrCl8SK-142" value="N" style="text;html=1;align=center;verticalAlign=middle;whiteSpace=wrap;rounded=0;" vertex="1" parent="1">
          <mxGeometry x="1553.9999999999998" y="336" width="60" height="30" as="geometry" />
        </mxCell>
        <mxCell id="XFZLn8mU4N4aDGrCl8SK-143" value="1" style="text;html=1;align=center;verticalAlign=middle;whiteSpace=wrap;rounded=0;" vertex="1" parent="1">
          <mxGeometry x="1241.9999999999998" y="424" width="60" height="30" as="geometry" />
        </mxCell>
        <mxCell id="XFZLn8mU4N4aDGrCl8SK-144" value="m" style="text;html=1;align=center;verticalAlign=middle;whiteSpace=wrap;rounded=0;" vertex="1" parent="1">
          <mxGeometry x="1451.9999999999998" y="612" width="60" height="30" as="geometry" />
        </mxCell>
        <mxCell id="uXZgkRd6HaHkhvPWlQsV-45" value="m" style="text;html=1;align=center;verticalAlign=middle;whiteSpace=wrap;rounded=0;" vertex="1" parent="1">
          <mxGeometry x="1823.9999999999998" y="336" width="60" height="30" as="geometry" />
        </mxCell>
        <mxCell id="uXZgkRd6HaHkhvPWlQsV-46" value="solicita" style="rhombus;whiteSpace=wrap;html=1;" vertex="1" parent="1">
          <mxGeometry x="1709.9999999999998" y="321" width="80" height="80" as="geometry" />
        </mxCell>
        <mxCell id="uXZgkRd6HaHkhvPWlQsV-47" value="agenda" style="rhombus;whiteSpace=wrap;html=1;" vertex="1" parent="1">
          <mxGeometry x="1373.9999999999998" y="424" width="80" height="80" as="geometry" />
        </mxCell>
        <mxCell id="uXZgkRd6HaHkhvPWlQsV-51" value="" style="endArrow=classic;html=1;rounded=0;exitX=0.342;exitY=1;exitDx=0;exitDy=0;exitPerimeter=0;" edge="1" parent="1" source="XFZLn8mU4N4aDGrCl8SK-23" target="uXZgkRd6HaHkhvPWlQsV-47">
          <mxGeometry width="50" height="50" relative="1" as="geometry">
            <mxPoint x="1422" y="246" as="sourcePoint" />
            <mxPoint x="1478" y="450" as="targetPoint" />
          </mxGeometry>
        </mxCell>
        <mxCell id="uXZgkRd6HaHkhvPWlQsV-52" value="" style="endArrow=classic;html=1;rounded=0;exitX=0.713;exitY=1;exitDx=0;exitDy=0;exitPerimeter=0;" edge="1" parent="1" source="XFZLn8mU4N4aDGrCl8SK-23" target="uXZgkRd6HaHkhvPWlQsV-46">
          <mxGeometry width="50" height="50" relative="1" as="geometry">
            <mxPoint x="1428" y="500" as="sourcePoint" />
            <mxPoint x="1478" y="450" as="targetPoint" />
            <Array as="points">
              <mxPoint x="1464" y="288" />
              <mxPoint x="1464" y="360" />
              <mxPoint x="1554" y="360" />
            </Array>
          </mxGeometry>
        </mxCell>
        <mxCell id="uXZgkRd6HaHkhvPWlQsV-53" value="N" style="text;html=1;align=center;verticalAlign=middle;whiteSpace=wrap;rounded=0;" vertex="1" parent="1">
          <mxGeometry x="1362" y="351" width="60" height="30" as="geometry" />
        </mxCell>
        <mxCell id="LCZmsySplRcOUDj-iDFr-1" value="tipo_zona_comunes" style="ellipse;whiteSpace=wrap;html=1;" vertex="1" parent="1">
          <mxGeometry x="1455" y="822" width="126" height="30" as="geometry" />
        </mxCell>
        <mxCell id="WKXp70jI0YYsmDOxTHGR-8" value="" style="endArrow=none;html=1;rounded=0;entryX=0.5;entryY=1;entryDx=0;entryDy=0;" edge="1" parent="1" source="XFZLn8mU4N4aDGrCl8SK-23" target="XFZLn8mU4N4aDGrCl8SK-15">
          <mxGeometry width="50" height="50" relative="1" as="geometry">
            <mxPoint x="708" y="186" as="sourcePoint" />
            <mxPoint x="770" y="270" as="targetPoint" />
          </mxGeometry>
        </mxCell>
        <mxCell id="WKXp70jI0YYsmDOxTHGR-10" value="" style="endArrow=none;html=1;rounded=0;entryX=0.383;entryY=0.912;entryDx=0;entryDy=0;entryPerimeter=0;exitX=0.75;exitY=0;exitDx=0;exitDy=0;" edge="1" parent="1" source="XFZLn8mU4N4aDGrCl8SK-23" target="XFZLn8mU4N4aDGrCl8SK-21">
          <mxGeometry width="50" height="50" relative="1" as="geometry">
            <mxPoint x="816" y="380" as="sourcePoint" />
            <mxPoint x="866" y="330" as="targetPoint" />
            <Array as="points" />
          </mxGeometry>
        </mxCell>
        <mxCell id="UNmhmMYlqOH1gAnvqfug-1" style="edgeStyle=orthogonalEdgeStyle;rounded=0;orthogonalLoop=1;jettySize=auto;html=1;exitX=0.5;exitY=1;exitDx=0;exitDy=0;" edge="1" parent="1" source="XFZLn8mU4N4aDGrCl8SK-38" target="XFZLn8mU4N4aDGrCl8SK-38">
          <mxGeometry relative="1" as="geometry" />
        </mxCell>
        <mxCell id="UNmhmMYlqOH1gAnvqfug-3" value="N" style="text;html=1;align=center;verticalAlign=middle;whiteSpace=wrap;rounded=0;" vertex="1" parent="1">
          <mxGeometry x="1458" y="501" width="60" height="30" as="geometry" />
        </mxCell>
        <mxCell id="UNmhmMYlqOH1gAnvqfug-8" style="edgeStyle=orthogonalEdgeStyle;rounded=0;orthogonalLoop=1;jettySize=auto;html=1;exitX=0.5;exitY=0;exitDx=0;exitDy=0;entryX=0.5;entryY=1;entryDx=0;entryDy=0;" edge="1" parent="1" source="UNmhmMYlqOH1gAnvqfug-6" target="XFZLn8mU4N4aDGrCl8SK-23">
          <mxGeometry relative="1" as="geometry" />
        </mxCell>
        <mxCell id="UNmhmMYlqOH1gAnvqfug-6" value="&lt;font style=&quot;font-size: 14px;&quot;&gt;agendar&lt;/font&gt;" style="rhombus;whiteSpace=wrap;html=1;" vertex="1" parent="1">
          <mxGeometry x="1485.9999999999998" y="539" width="80" height="80" as="geometry" />
        </mxCell>
        <mxCell id="UNmhmMYlqOH1gAnvqfug-13" value="" style="endArrow=none;html=1;rounded=0;entryX=0.056;entryY=0.667;entryDx=0;entryDy=0;entryPerimeter=0;" edge="1" parent="1" source="UNmhmMYlqOH1gAnvqfug-6" target="XFZLn8mU4N4aDGrCl8SK-104">
          <mxGeometry width="50" height="50" relative="1" as="geometry">
            <mxPoint x="1565.9957142857143" y="551.9957142857143" as="sourcePoint" />
            <mxPoint x="1687.71" y="531.71" as="targetPoint" />
          </mxGeometry>
        </mxCell>
        <mxCell id="UNmhmMYlqOH1gAnvqfug-14" value="" style="endArrow=none;dashed=1;html=1;rounded=0;entryX=0.405;entryY=0.958;entryDx=0;entryDy=0;entryPerimeter=0;" edge="1" parent="1" source="UNmhmMYlqOH1gAnvqfug-6" target="XFZLn8mU4N4aDGrCl8SK-109">
          <mxGeometry width="50" height="50" relative="1" as="geometry">
            <mxPoint x="1596" y="560" as="sourcePoint" />
            <mxPoint x="1646" y="510" as="targetPoint" />
          </mxGeometry>
        </mxCell>
        <mxCell id="UNmhmMYlqOH1gAnvqfug-15" value="" style="endArrow=none;html=1;rounded=0;" edge="1" parent="1" source="UNmhmMYlqOH1gAnvqfug-6" target="XFZLn8mU4N4aDGrCl8SK-107">
          <mxGeometry width="50" height="50" relative="1" as="geometry">
            <mxPoint x="1686" y="614" as="sourcePoint" />
            <mxPoint x="1736" y="564" as="targetPoint" />
          </mxGeometry>
        </mxCell>
        <mxCell id="UNmhmMYlqOH1gAnvqfug-16" value="" style="endArrow=none;html=1;rounded=0;" edge="1" parent="1" source="UNmhmMYlqOH1gAnvqfug-6" target="XFZLn8mU4N4aDGrCl8SK-108">
          <mxGeometry width="50" height="50" relative="1" as="geometry">
            <mxPoint x="1608" y="626" as="sourcePoint" />
            <mxPoint x="1658" y="576" as="targetPoint" />
          </mxGeometry>
        </mxCell>
        <mxCell id="UNmhmMYlqOH1gAnvqfug-18" value="" style="endArrow=none;html=1;rounded=0;" edge="1" parent="1" source="UNmhmMYlqOH1gAnvqfug-6" target="XFZLn8mU4N4aDGrCl8SK-112">
          <mxGeometry width="50" height="50" relative="1" as="geometry">
            <mxPoint x="1662" y="704" as="sourcePoint" />
            <mxPoint x="1712" y="654" as="targetPoint" />
          </mxGeometry>
        </mxCell>
        <mxCell id="UNmhmMYlqOH1gAnvqfug-20" style="edgeStyle=orthogonalEdgeStyle;rounded=0;orthogonalLoop=1;jettySize=auto;html=1;exitX=0.5;exitY=1;exitDx=0;exitDy=0;entryX=0.567;entryY=0.033;entryDx=0;entryDy=0;entryPerimeter=0;" edge="1" parent="1" source="UNmhmMYlqOH1gAnvqfug-6" target="XFZLn8mU4N4aDGrCl8SK-95">
          <mxGeometry relative="1" as="geometry" />
        </mxCell>
        <mxCell id="UNmhmMYlqOH1gAnvqfug-21" value="" style="endArrow=none;html=1;rounded=0;entryX=0.5;entryY=1;entryDx=0;entryDy=0;" edge="1" parent="1" source="LCZmsySplRcOUDj-iDFr-1" target="XFZLn8mU4N4aDGrCl8SK-95">
          <mxGeometry width="50" height="50" relative="1" as="geometry">
            <mxPoint x="1614" y="776" as="sourcePoint" />
            <mxPoint x="1664" y="726" as="targetPoint" />
          </mxGeometry>
        </mxCell>
        <mxCell id="M65XA3ntROZhBf9hPt6s-28" style="edgeStyle=orthogonalEdgeStyle;rounded=0;orthogonalLoop=1;jettySize=auto;html=1;exitX=0.5;exitY=1;exitDx=0;exitDy=0;entryX=0.5;entryY=0;entryDx=0;entryDy=0;" edge="1" parent="1" source="M65XA3ntROZhBf9hPt6s-19" target="M65XA3ntROZhBf9hPt6s-26">
          <mxGeometry relative="1" as="geometry" />
        </mxCell>
        <mxCell id="M65XA3ntROZhBf9hPt6s-19" value="&lt;span style=&quot;font-family: docs-Calibri; font-size: 15px; font-weight: 700; text-align: left; white-space-collapse: preserve; background-color: rgb(255, 255, 255);&quot;&gt;TIPODOC&lt;/span&gt;" style="rounded=0;whiteSpace=wrap;html=1;" vertex="1" parent="1">
          <mxGeometry x="384" y="-6" width="132" height="54" as="geometry" />
        </mxCell>
        <mxCell id="M65XA3ntROZhBf9hPt6s-20" value="descripcion" style="ellipse;whiteSpace=wrap;html=1;" vertex="1" parent="1">
          <mxGeometry x="249" y="6" width="114" height="30" as="geometry" />
        </mxCell>
        <mxCell id="M65XA3ntROZhBf9hPt6s-21" value="id" style="ellipse;whiteSpace=wrap;html=1;" vertex="1" parent="1">
          <mxGeometry x="390" y="-88" width="114" height="27" as="geometry" />
        </mxCell>
        <mxCell id="M65XA3ntROZhBf9hPt6s-23" value="" style="endArrow=none;html=1;rounded=0;entryX=1;entryY=0.5;entryDx=0;entryDy=0;exitX=0;exitY=0.5;exitDx=0;exitDy=0;" edge="1" parent="1" source="M65XA3ntROZhBf9hPt6s-19" target="M65XA3ntROZhBf9hPt6s-20">
          <mxGeometry width="50" height="50" relative="1" as="geometry">
            <mxPoint x="363" y="134" as="sourcePoint" />
            <mxPoint x="413" y="84" as="targetPoint" />
          </mxGeometry>
        </mxCell>
        <mxCell id="M65XA3ntROZhBf9hPt6s-24" value="" style="endArrow=none;dashed=1;html=1;rounded=0;exitX=0.5;exitY=1;exitDx=0;exitDy=0;" edge="1" parent="1" source="M65XA3ntROZhBf9hPt6s-21">
          <mxGeometry width="50" height="50" relative="1" as="geometry">
            <mxPoint x="532" y="-63" as="sourcePoint" />
            <mxPoint x="444" y="-12" as="targetPoint" />
          </mxGeometry>
        </mxCell>
        <mxCell id="M65XA3ntROZhBf9hPt6s-27" style="edgeStyle=orthogonalEdgeStyle;rounded=0;orthogonalLoop=1;jettySize=auto;html=1;exitX=0.5;exitY=1;exitDx=0;exitDy=0;entryX=0;entryY=0.5;entryDx=0;entryDy=0;" edge="1" parent="1" source="M65XA3ntROZhBf9hPt6s-26" target="XFZLn8mU4N4aDGrCl8SK-2">
          <mxGeometry relative="1" as="geometry" />
        </mxCell>
        <mxCell id="M65XA3ntROZhBf9hPt6s-26" value="tiene" style="rhombus;whiteSpace=wrap;html=1;" vertex="1" parent="1">
          <mxGeometry x="399" y="80" width="122" height="80" as="geometry" />
        </mxCell>
        <mxCell id="M65XA3ntROZhBf9hPt6s-30" value="N" style="text;html=1;align=center;verticalAlign=middle;whiteSpace=wrap;rounded=0;" vertex="1" parent="1">
          <mxGeometry x="463" y="156" width="60" height="30" as="geometry" />
        </mxCell>
        <mxCell id="M65XA3ntROZhBf9hPt6s-31" style="edgeStyle=orthogonalEdgeStyle;rounded=0;orthogonalLoop=1;jettySize=auto;html=1;exitX=0.5;exitY=1;exitDx=0;exitDy=0;entryX=0.5;entryY=0;entryDx=0;entryDy=0;" edge="1" parent="1" source="M65XA3ntROZhBf9hPt6s-32" target="M65XA3ntROZhBf9hPt6s-38">
          <mxGeometry relative="1" as="geometry" />
        </mxCell>
        <mxCell id="M65XA3ntROZhBf9hPt6s-32" value="&lt;span style=&quot;font-family: docs-Calibri; font-size: 15px; font-weight: 700; text-align: left; white-space-collapse: preserve; background-color: rgb(255, 255, 255);&quot;&gt;ROL&lt;/span&gt;" style="rounded=0;whiteSpace=wrap;html=1;" vertex="1" parent="1">
          <mxGeometry x="679" y="-150" width="132" height="54" as="geometry" />
        </mxCell>
        <mxCell id="M65XA3ntROZhBf9hPt6s-33" value="descripcion" style="ellipse;whiteSpace=wrap;html=1;" vertex="1" parent="1">
          <mxGeometry x="523" y="-138" width="114" height="30" as="geometry" />
        </mxCell>
        <mxCell id="M65XA3ntROZhBf9hPt6s-34" value="id" style="ellipse;whiteSpace=wrap;html=1;" vertex="1" parent="1">
          <mxGeometry x="688" y="-216" width="114" height="27" as="geometry" />
        </mxCell>
        <mxCell id="M65XA3ntROZhBf9hPt6s-35" value="" style="endArrow=none;html=1;rounded=0;entryX=1;entryY=0.5;entryDx=0;entryDy=0;" edge="1" parent="1" source="M65XA3ntROZhBf9hPt6s-32" target="M65XA3ntROZhBf9hPt6s-33">
          <mxGeometry width="50" height="50" relative="1" as="geometry">
            <mxPoint x="637" y="-10" as="sourcePoint" />
            <mxPoint x="687" y="-60" as="targetPoint" />
          </mxGeometry>
        </mxCell>
        <mxCell id="M65XA3ntROZhBf9hPt6s-36" value="" style="endArrow=none;dashed=1;html=1;rounded=0;exitX=0.5;exitY=1;exitDx=0;exitDy=0;entryX=0.5;entryY=0;entryDx=0;entryDy=0;" edge="1" parent="1" source="M65XA3ntROZhBf9hPt6s-34" target="M65XA3ntROZhBf9hPt6s-32">
          <mxGeometry width="50" height="50" relative="1" as="geometry">
            <mxPoint x="806" y="-207" as="sourcePoint" />
            <mxPoint x="787" y="-160" as="targetPoint" />
          </mxGeometry>
        </mxCell>
        <mxCell id="M65XA3ntROZhBf9hPt6s-38" value="asignado" style="rhombus;whiteSpace=wrap;html=1;" vertex="1" parent="1">
          <mxGeometry x="679" y="-61" width="122" height="80" as="geometry" />
        </mxCell>
        <mxCell id="M65XA3ntROZhBf9hPt6s-40" value="N" style="text;html=1;align=center;verticalAlign=middle;whiteSpace=wrap;rounded=0;" vertex="1" parent="1">
          <mxGeometry x="729" y="24" width="60" height="30" as="geometry" />
        </mxCell>
        <mxCell id="M65XA3ntROZhBf9hPt6s-41" value="1" style="text;html=1;align=center;verticalAlign=middle;whiteSpace=wrap;rounded=0;" vertex="1" parent="1">
          <mxGeometry x="733.5" y="-84" width="60" height="30" as="geometry" />
        </mxCell>
        <mxCell id="M65XA3ntROZhBf9hPt6s-65" value="id_Parqueaderos" style="ellipse;whiteSpace=wrap;html=1;" vertex="1" parent="1">
          <mxGeometry x="1581" y="273" width="108" height="42" as="geometry" />
        </mxCell>
        <mxCell id="M65XA3ntROZhBf9hPt6s-66" value="" style="endArrow=none;dashed=1;html=1;rounded=0;" edge="1" parent="1" source="uXZgkRd6HaHkhvPWlQsV-46" target="M65XA3ntROZhBf9hPt6s-65">
          <mxGeometry width="50" height="50" relative="1" as="geometry">
            <mxPoint x="1717.5" y="311.25" as="sourcePoint" />
            <mxPoint x="1672.4299999999998" y="268.75" as="targetPoint" />
          </mxGeometry>
        </mxCell>
        <mxCell id="M65XA3ntROZhBf9hPt6s-67" value="id_apartamento" style="ellipse;whiteSpace=wrap;html=1;" vertex="1" parent="1">
          <mxGeometry x="1697.5" y="231" width="105" height="42" as="geometry" />
        </mxCell>
        <mxCell id="M65XA3ntROZhBf9hPt6s-68" value="" style="endArrow=none;dashed=1;html=1;rounded=0;" edge="1" parent="1" source="uXZgkRd6HaHkhvPWlQsV-46" target="M65XA3ntROZhBf9hPt6s-67">
          <mxGeometry width="50" height="50" relative="1" as="geometry">
            <mxPoint x="1741" y="362.5" as="sourcePoint" />
            <mxPoint x="1740" y="279.5" as="targetPoint" />
          </mxGeometry>
        </mxCell>
        <mxCell id="M65XA3ntROZhBf9hPt6s-69" value="fecha" style="ellipse;whiteSpace=wrap;html=1;" vertex="1" parent="1">
          <mxGeometry x="1796.9999999999998" y="390" width="51" height="30" as="geometry" />
        </mxCell>
        <mxCell id="M65XA3ntROZhBf9hPt6s-70" value="" style="endArrow=none;html=1;rounded=0;entryX=1;entryY=1;entryDx=0;entryDy=0;exitX=0;exitY=0;exitDx=0;exitDy=0;" edge="1" parent="1" source="M65XA3ntROZhBf9hPt6s-69" target="uXZgkRd6HaHkhvPWlQsV-46">
          <mxGeometry width="50" height="50" relative="1" as="geometry">
            <mxPoint x="1662" y="470" as="sourcePoint" />
            <mxPoint x="1712" y="420" as="targetPoint" />
          </mxGeometry>
        </mxCell>
        <mxCell id="M65XA3ntROZhBf9hPt6s-73" value="hora" style="ellipse;whiteSpace=wrap;html=1;" vertex="1" parent="1">
          <mxGeometry x="1660.9999999999998" y="390" width="51" height="30" as="geometry" />
        </mxCell>
        <mxCell id="M65XA3ntROZhBf9hPt6s-75" value="" style="endArrow=none;html=1;rounded=0;exitX=0;exitY=1;exitDx=0;exitDy=0;" edge="1" parent="1" source="uXZgkRd6HaHkhvPWlQsV-46" target="M65XA3ntROZhBf9hPt6s-73">
          <mxGeometry width="50" height="50" relative="1" as="geometry">
            <mxPoint x="1800" y="460" as="sourcePoint" />
            <mxPoint x="1898" y="451" as="targetPoint" />
          </mxGeometry>
        </mxCell>
        <mxCell id="nqJ5pevmRV5V5jfsWohg-3" value="idRol" style="ellipse;whiteSpace=wrap;html=1;" vertex="1" parent="1">
          <mxGeometry x="648" y="126" width="114" height="27" as="geometry" />
        </mxCell>
        <mxCell id="nqJ5pevmRV5V5jfsWohg-4" value="" style="endArrow=none;html=1;rounded=0;exitX=1;exitY=1;exitDx=0;exitDy=0;" edge="1" parent="1" source="nqJ5pevmRV5V5jfsWohg-3" target="XFZLn8mU4N4aDGrCl8SK-1">
          <mxGeometry width="50" height="50" relative="1" as="geometry">
            <mxPoint x="771" y="156" as="sourcePoint" />
            <mxPoint x="855" y="169" as="targetPoint" />
          </mxGeometry>
        </mxCell>
        <mxCell id="nqJ5pevmRV5V5jfsWohg-5" value="telefono1" style="ellipse;whiteSpace=wrap;html=1;" vertex="1" parent="1">
          <mxGeometry x="867" y="274" width="114" height="54" as="geometry" />
        </mxCell>
        <mxCell id="nqJ5pevmRV5V5jfsWohg-6" value="" style="endArrow=none;html=1;rounded=0;entryX=0.75;entryY=1;entryDx=0;entryDy=0;" edge="1" parent="1" source="nqJ5pevmRV5V5jfsWohg-5" target="XFZLn8mU4N4aDGrCl8SK-1">
          <mxGeometry width="50" height="50" relative="1" as="geometry">
            <mxPoint x="790" y="283" as="sourcePoint" />
            <mxPoint x="815" y="254" as="targetPoint" />
            <Array as="points">
              <mxPoint x="891" y="270" />
            </Array>
          </mxGeometry>
        </mxCell>
        <mxCell id="nqJ5pevmRV5V5jfsWohg-9" value="ver" style="rhombus;whiteSpace=wrap;html=1;" vertex="1" parent="1">
          <mxGeometry x="849" y="506" width="144" height="80" as="geometry" />
        </mxCell>
        <mxCell id="nqJ5pevmRV5V5jfsWohg-11" value="" style="endArrow=classic;html=1;rounded=0;entryX=0.5;entryY=0;entryDx=0;entryDy=0;" edge="1" parent="1" target="nqJ5pevmRV5V5jfsWohg-9">
          <mxGeometry width="50" height="50" relative="1" as="geometry">
            <mxPoint x="855" y="234" as="sourcePoint" />
            <mxPoint x="993" y="420" as="targetPoint" />
            <Array as="points">
              <mxPoint x="861" y="354" />
              <mxPoint x="921" y="354" />
            </Array>
          </mxGeometry>
        </mxCell>
        <mxCell id="nqJ5pevmRV5V5jfsWohg-12" value="ingreso de peatonal" style="rounded=0;whiteSpace=wrap;html=1;" vertex="1" parent="1">
          <mxGeometry x="861" y="639" width="120" height="60" as="geometry" />
        </mxCell>
        <mxCell id="nqJ5pevmRV5V5jfsWohg-13" value="" style="endArrow=classic;html=1;rounded=0;entryX=0.5;entryY=1;entryDx=0;entryDy=0;exitX=0.5;exitY=0;exitDx=0;exitDy=0;" edge="1" parent="1" source="nqJ5pevmRV5V5jfsWohg-12" target="nqJ5pevmRV5V5jfsWohg-9">
          <mxGeometry width="50" height="50" relative="1" as="geometry">
            <mxPoint x="831" y="674" as="sourcePoint" />
            <mxPoint x="881" y="624" as="targetPoint" />
          </mxGeometry>
        </mxCell>
        <mxCell id="nqJ5pevmRV5V5jfsWohg-14" value="HoraFecha" style="ellipse;whiteSpace=wrap;html=1;" vertex="1" parent="1">
          <mxGeometry x="703" y="654" width="99" height="30" as="geometry" />
        </mxCell>
        <mxCell id="nqJ5pevmRV5V5jfsWohg-16" value="" style="endArrow=none;html=1;rounded=0;entryX=0;entryY=0.5;entryDx=0;entryDy=0;" edge="1" parent="1" source="nqJ5pevmRV5V5jfsWohg-14" target="nqJ5pevmRV5V5jfsWohg-12">
          <mxGeometry width="50" height="50" relative="1" as="geometry">
            <mxPoint x="903" y="800" as="sourcePoint" />
            <mxPoint x="861" y="693" as="targetPoint" />
          </mxGeometry>
        </mxCell>
        <mxCell id="nqJ5pevmRV5V5jfsWohg-17" value="idIngresoPeatonal" style="ellipse;whiteSpace=wrap;html=1;" vertex="1" parent="1">
          <mxGeometry x="855" y="747" width="126" height="30" as="geometry" />
        </mxCell>
        <mxCell id="nqJ5pevmRV5V5jfsWohg-18" value="" style="endArrow=none;dashed=1;html=1;dashPattern=1 3;strokeWidth=2;rounded=0;exitX=0.5;exitY=1;exitDx=0;exitDy=0;" edge="1" parent="1" source="nqJ5pevmRV5V5jfsWohg-12">
          <mxGeometry width="50" height="50" relative="1" as="geometry">
            <mxPoint x="1017" y="746" as="sourcePoint" />
            <mxPoint x="921" y="744" as="targetPoint" />
          </mxGeometry>
        </mxCell>
        <mxCell id="nqJ5pevmRV5V5jfsWohg-19" value="tipo ingreso" style="ellipse;whiteSpace=wrap;html=1;" vertex="1" parent="1">
          <mxGeometry x="1047" y="654" width="99" height="30" as="geometry" />
        </mxCell>
        <mxCell id="nqJ5pevmRV5V5jfsWohg-20" value="" style="endArrow=none;html=1;rounded=0;entryX=0;entryY=0.5;entryDx=0;entryDy=0;exitX=1;exitY=0.5;exitDx=0;exitDy=0;" edge="1" parent="1" source="nqJ5pevmRV5V5jfsWohg-12" target="nqJ5pevmRV5V5jfsWohg-19">
          <mxGeometry width="50" height="50" relative="1" as="geometry">
            <mxPoint x="981" y="669" as="sourcePoint" />
            <mxPoint x="1046.9990000000003" y="670.9999999999998" as="targetPoint" />
            <Array as="points" />
          </mxGeometry>
        </mxCell>
        <mxCell id="nqJ5pevmRV5V5jfsWohg-21" value="1" style="text;html=1;align=center;verticalAlign=middle;whiteSpace=wrap;rounded=0;" vertex="1" parent="1">
          <mxGeometry x="837" y="588" width="60" height="30" as="geometry" />
        </mxCell>
        <mxCell id="nqJ5pevmRV5V5jfsWohg-22" value="1" style="text;html=1;align=center;verticalAlign=middle;whiteSpace=wrap;rounded=0;" vertex="1" parent="1">
          <mxGeometry x="849" y="458" width="60" height="30" as="geometry" />
        </mxCell>
        <mxCell id="nqJ5pevmRV5V5jfsWohg-39" value="1" style="text;html=1;align=center;verticalAlign=middle;whiteSpace=wrap;rounded=0;" vertex="1" parent="1">
          <mxGeometry x="909" y="-3" width="60" height="48" as="geometry" />
        </mxCell>
        <mxCell id="6yspMoAzT6jWxjRdkrvf-1" value="" style="endArrow=classic;html=1;rounded=0;exitX=0.5;exitY=1;exitDx=0;exitDy=0;entryX=0.807;entryY=0;entryDx=0;entryDy=0;entryPerimeter=0;" edge="1" parent="1" source="M65XA3ntROZhBf9hPt6s-38" target="nqJ5pevmRV5V5jfsWohg-3">
          <mxGeometry width="50" height="50" relative="1" as="geometry">
            <mxPoint x="831" y="140" as="sourcePoint" />
            <mxPoint x="735" y="128" as="targetPoint" />
          </mxGeometry>
        </mxCell>
        <mxCell id="6yspMoAzT6jWxjRdkrvf-2" value="" style="endArrow=classic;html=1;rounded=0;exitX=1;exitY=0.5;exitDx=0;exitDy=0;entryX=0.033;entryY=0.4;entryDx=0;entryDy=0;entryPerimeter=0;" edge="1" parent="1" source="uXZgkRd6HaHkhvPWlQsV-46" target="XFZLn8mU4N4aDGrCl8SK-50">
          <mxGeometry width="50" height="50" relative="1" as="geometry">
            <mxPoint x="1932" y="482" as="sourcePoint" />
            <mxPoint x="1982" y="432" as="targetPoint" />
          </mxGeometry>
        </mxCell>
        <mxCell id="wD9vCSs2kiwaSjGG6T85-4" style="edgeStyle=orthogonalEdgeStyle;rounded=0;orthogonalLoop=1;jettySize=auto;html=1;exitX=0.5;exitY=0;exitDx=0;exitDy=0;entryX=0.5;entryY=1;entryDx=0;entryDy=0;" edge="1" parent="1" source="wD9vCSs2kiwaSjGG6T85-1" target="wD9vCSs2kiwaSjGG6T85-3">
          <mxGeometry relative="1" as="geometry">
            <Array as="points">
              <mxPoint x="1772" y="106" />
              <mxPoint x="1774" y="106" />
            </Array>
          </mxGeometry>
        </mxCell>
        <mxCell id="wD9vCSs2kiwaSjGG6T85-1" value="PUEDE" style="rhombus;whiteSpace=wrap;html=1;" vertex="1" parent="1">
          <mxGeometry x="1714.5" y="126" width="114" height="80" as="geometry" />
        </mxCell>
        <mxCell id="wD9vCSs2kiwaSjGG6T85-3" value="PAGOS" style="rounded=0;whiteSpace=wrap;html=1;" vertex="1" parent="1">
          <mxGeometry x="1714.5" y="26" width="120" height="60" as="geometry" />
        </mxCell>
        <mxCell id="wD9vCSs2kiwaSjGG6T85-5" value="N" style="text;html=1;align=center;verticalAlign=middle;whiteSpace=wrap;rounded=0;" vertex="1" parent="1">
          <mxGeometry x="1714.4999999999998" y="96" width="60" height="30" as="geometry" />
        </mxCell>
        <mxCell id="wD9vCSs2kiwaSjGG6T85-6" value="1" style="text;html=1;align=center;verticalAlign=middle;whiteSpace=wrap;rounded=0;" vertex="1" parent="1">
          <mxGeometry x="1580.9999999999998" y="166" width="60" height="30" as="geometry" />
        </mxCell>
        <mxCell id="wD9vCSs2kiwaSjGG6T85-7" value="idPagos" style="ellipse;whiteSpace=wrap;html=1;" vertex="1" parent="1">
          <mxGeometry x="1716" y="-30.75" width="105" height="42" as="geometry" />
        </mxCell>
        <mxCell id="wD9vCSs2kiwaSjGG6T85-8" value="" style="endArrow=none;dashed=1;html=1;rounded=0;entryX=0.5;entryY=1;entryDx=0;entryDy=0;" edge="1" parent="1" target="wD9vCSs2kiwaSjGG6T85-7">
          <mxGeometry width="50" height="50" relative="1" as="geometry">
            <mxPoint x="1776" y="30" as="sourcePoint" />
            <mxPoint x="1776" y="-5" as="targetPoint" />
          </mxGeometry>
        </mxCell>
        <mxCell id="wD9vCSs2kiwaSjGG6T85-9" value="cantidad" style="ellipse;whiteSpace=wrap;html=1;" vertex="1" parent="1">
          <mxGeometry x="1593" y="41" width="90" height="30" as="geometry" />
        </mxCell>
        <mxCell id="wD9vCSs2kiwaSjGG6T85-10" value="" style="endArrow=none;html=1;rounded=0;exitX=1;exitY=0.5;exitDx=0;exitDy=0;entryX=0.013;entryY=0.467;entryDx=0;entryDy=0;entryPerimeter=0;" edge="1" parent="1" source="wD9vCSs2kiwaSjGG6T85-9" target="wD9vCSs2kiwaSjGG6T85-3">
          <mxGeometry width="50" height="50" relative="1" as="geometry">
            <mxPoint x="1644" y="98" as="sourcePoint" />
            <mxPoint x="1694" y="48" as="targetPoint" />
          </mxGeometry>
        </mxCell>
        <mxCell id="wD9vCSs2kiwaSjGG6T85-11" value="mediopago" style="ellipse;whiteSpace=wrap;html=1;" vertex="1" parent="1">
          <mxGeometry x="1854" y="41" width="90" height="30" as="geometry" />
        </mxCell>
        <mxCell id="wD9vCSs2kiwaSjGG6T85-12" value="" style="endArrow=none;html=1;rounded=0;exitX=1;exitY=0.5;exitDx=0;exitDy=0;entryX=0;entryY=0.5;entryDx=0;entryDy=0;" edge="1" parent="1" source="wD9vCSs2kiwaSjGG6T85-3" target="wD9vCSs2kiwaSjGG6T85-11">
          <mxGeometry width="50" height="50" relative="1" as="geometry">
            <mxPoint x="1878" y="134" as="sourcePoint" />
            <mxPoint x="1928" y="84" as="targetPoint" />
          </mxGeometry>
        </mxCell>
        <mxCell id="9U6cavfSy_mjkK7DyCbC-2" value="chatea" style="rhombus;whiteSpace=wrap;html=1;" vertex="1" parent="1">
          <mxGeometry x="663" y="384" width="114" height="80" as="geometry" />
        </mxCell>
        <mxCell id="9U6cavfSy_mjkK7DyCbC-3" value="chat" style="rounded=0;whiteSpace=wrap;html=1;" vertex="1" parent="1">
          <mxGeometry x="439.5" y="376.75" width="120" height="60" as="geometry" />
        </mxCell>
        <mxCell id="9U6cavfSy_mjkK7DyCbC-4" value="N" style="text;html=1;align=center;verticalAlign=middle;whiteSpace=wrap;rounded=0;" vertex="1" parent="1">
          <mxGeometry x="599.9999999999998" y="391.75" width="60" height="30" as="geometry" />
        </mxCell>
        <mxCell id="9U6cavfSy_mjkK7DyCbC-6" value="&lt;span style=&quot;font-family: sans-serif; font-size: 13.12px; font-weight: 700; text-align: left; text-wrap-mode: nowrap; background-color: rgb(255, 255, 255);&quot;&gt;id_mensaje&lt;/span&gt;" style="ellipse;whiteSpace=wrap;html=1;" vertex="1" parent="1">
          <mxGeometry x="447" y="309" width="105" height="42" as="geometry" />
        </mxCell>
        <mxCell id="9U6cavfSy_mjkK7DyCbC-7" value="" style="endArrow=none;dashed=1;html=1;rounded=0;entryX=0.5;entryY=1;entryDx=0;entryDy=0;" edge="1" parent="1" target="9U6cavfSy_mjkK7DyCbC-6">
          <mxGeometry width="50" height="50" relative="1" as="geometry">
            <mxPoint x="501" y="380.75" as="sourcePoint" />
            <mxPoint x="501" y="345.75" as="targetPoint" />
          </mxGeometry>
        </mxCell>
        <mxCell id="9U6cavfSy_mjkK7DyCbC-8" value="&lt;span style=&quot;font-family: sans-serif; font-size: 13.12px; font-weight: 700; text-align: left; text-wrap-mode: nowrap; background-color: rgb(255, 255, 255);&quot;&gt;contenido&lt;/span&gt;" style="ellipse;whiteSpace=wrap;html=1;" vertex="1" parent="1">
          <mxGeometry x="306" y="366" width="90" height="30" as="geometry" />
        </mxCell>
        <mxCell id="9U6cavfSy_mjkK7DyCbC-9" value="" style="endArrow=none;html=1;rounded=0;exitX=1;exitY=0.5;exitDx=0;exitDy=0;entryX=0.013;entryY=0.467;entryDx=0;entryDy=0;entryPerimeter=0;" edge="1" parent="1" source="9U6cavfSy_mjkK7DyCbC-8" target="9U6cavfSy_mjkK7DyCbC-3">
          <mxGeometry width="50" height="50" relative="1" as="geometry">
            <mxPoint x="369" y="448.75" as="sourcePoint" />
            <mxPoint x="419" y="398.75" as="targetPoint" />
          </mxGeometry>
        </mxCell>
        <mxCell id="9U6cavfSy_mjkK7DyCbC-10" value="fecha" style="ellipse;whiteSpace=wrap;html=1;" vertex="1" parent="1">
          <mxGeometry x="318" y="450" width="90" height="30" as="geometry" />
        </mxCell>
        <mxCell id="9U6cavfSy_mjkK7DyCbC-11" value="" style="endArrow=none;html=1;rounded=0;" edge="1" parent="1" target="9U6cavfSy_mjkK7DyCbC-10">
          <mxGeometry width="50" height="50" relative="1" as="geometry">
            <mxPoint x="432" y="432" as="sourcePoint" />
            <mxPoint x="653" y="434.75" as="targetPoint" />
          </mxGeometry>
        </mxCell>
        <mxCell id="9U6cavfSy_mjkK7DyCbC-14" style="edgeStyle=orthogonalEdgeStyle;rounded=0;orthogonalLoop=1;jettySize=auto;html=1;exitX=0;exitY=0.5;exitDx=0;exitDy=0;entryX=0.996;entryY=0.654;entryDx=0;entryDy=0;entryPerimeter=0;" edge="1" parent="1" source="9U6cavfSy_mjkK7DyCbC-2" target="9U6cavfSy_mjkK7DyCbC-3">
          <mxGeometry relative="1" as="geometry" />
        </mxCell>
        <mxCell id="9U6cavfSy_mjkK7DyCbC-16" value="1" style="text;html=1;align=center;verticalAlign=middle;whiteSpace=wrap;rounded=0;" vertex="1" parent="1">
          <mxGeometry x="789" y="343.75" width="60" height="48" as="geometry" />
        </mxCell>
      </root>
    </mxGraphModel>
  </diagram>
</mxfile>
